<?xml version="1.0" standalone="no"?>
<!DOCTYPE svg PUBLIC "-//W3C//DTD SVG 20010904//EN"
 "http://www.w3.org/TR/2001/REC-SVG-20010904/DTD/svg10.dtd">
<svg version="1.0" xmlns="http://www.w3.org/2000/svg"
 width="800.000000pt" height="320.000000pt" viewBox="0 0 800.000000 320.000000"
 preserveAspectRatio="xMidYMid meet">
<metadata>
Created by potrace 1.16, written by Peter Selinger 2001-2019
</metadata>
<g transform="translate(0.000000,320.000000) scale(0.100000,-0.100000)"
fill="#000000" stroke="none">
<path d="M5279 3153 c10 -27 44 -110 74 -185 l55 -138 -311 -397 c-170 -219
-311 -399 -312 -401 -1 -1 -368 -37 -816 -79 -765 -72 -830 -76 -1079 -77
-348 -1 -574 25 -722 82 -75 29 -74 26 -53 122 21 96 26 90 -70 90 l-84 0 -24
-35 -24 -36 -54 42 c-145 115 -537 466 -815 731 l-132 125 -136 -31 c-75 -17
-136 -35 -136 -41 0 -5 164 -302 365 -660 l364 -650 -36 -8 c-20 -4 -38 -9
-40 -11 -2 -1 3 -24 11 -49 8 -26 11 -49 8 -51 -4 -2 -245 -65 -537 -140 -772
-197 -775 -198 -775 -247 0 -51 30 -64 178 -79 l93 -9 607 149 607 148 75 -30
c254 -101 735 -262 831 -277 198 -32 483 -56 648 -54 95 1 172 1 170 -1 -5 -5
-2183 -716 -2192 -716 -4 0 -62 43 -128 95 -75 59 -128 94 -138 91 -9 -3 -65
-8 -126 -12 -60 -3 -115 -9 -122 -13 -8 -4 18 -33 70 -78 85 -74 233 -222 258
-259 31 -46 75 -58 219 -62 l135 -3 755 225 c415 124 1012 303 1326 397 l571
172 48 -34 c36 -25 49 -30 53 -20 7 21 40 51 57 51 11 0 8 -9 -11 -37 -14 -22
-24 -48 -22 -63 3 -23 7 -25 50 -24 37 0 49 -4 53 -17 10 -31 92 -97 134 -109
52 -14 265 -17 480 -8 l164 7 67 41 c82 49 103 71 129 133 32 75 35 118 16
199 -15 58 -25 80 -54 108 -20 19 -45 40 -55 45 -22 13 365 55 780 85 828 61
1520 131 1692 171 190 44 414 163 531 283 38 38 45 52 49 96 4 46 2 54 -24 82
-35 37 -135 103 -222 147 -35 18 -84 47 -110 65 -66 48 -153 80 -332 125 -237
60 -347 74 -525 66 -250 -10 -623 -34 -948 -61 -170 -14 -312 -24 -317 -22 -5
2 50 166 121 366 l130 363 -138 185 -138 184 -117 0 -118 0 19 -47z m305 -159
c65 -85 119 -161 122 -168 3 -7 -51 -170 -119 -361 -110 -307 -128 -350 -148
-356 -35 -11 -559 -62 -565 -56 -3 3 129 177 294 388 l299 382 -63 158 c-35
88 -64 161 -64 164 0 3 29 5 64 5 l64 0 116 -156z m-4553 -180 c354 -334 693
-635 854 -757 89 -67 248 -148 340 -172 151 -39 370 -59 655 -59 262 1 310 4
1040 73 1918 180 2318 213 2870 237 111 4 170 2 250 -11 141 -22 459 -102 478
-120 7 -7 -18 -43 -34 -49 -9 -4 -87 -20 -173 -37 -86 -16 -173 -35 -195 -40
l-38 -10 7 -47 c12 -89 2 -84 133 -76 165 9 277 50 391 142 l43 35 47 -23 c78
-38 180 -100 216 -132 41 -36 46 -72 13 -113 -35 -45 -168 -138 -274 -192
-180 -92 -291 -115 -814 -167 -319 -32 -749 -69 -1120 -96 -237 -17 -626 -54
-795 -75 -35 -4 -32 -2 25 20 60 22 100 53 100 77 0 20 -50 57 -91 68 -62 17
-155 9 -534 -50 -490 -76 -672 -113 -843 -170 l-149 -50 -239 -10 c-234 -10
-294 -8 -529 20 -44 5 -128 14 -187 19 -90 9 -142 22 -340 87 -275 90 -558
193 -558 203 0 4 53 20 118 35 64 16 123 32 130 36 16 8 -67 47 -183 85 -69
23 -93 26 -179 23 -94 -3 -99 -2 -107 19 -8 21 -5 23 32 29 21 4 42 11 45 15
3 5 -158 300 -357 656 -199 357 -364 651 -366 655 -3 5 141 45 173 47 6 1 71
-56 145 -125z m6559 -854 l25 -20 -38 -34 c-21 -19 -73 -51 -115 -72 -68 -33
-91 -39 -202 -50 -69 -6 -128 -10 -132 -7 -5 2 -8 19 -8 37 l0 33 163 32 c199
39 218 45 247 76 28 30 28 30 60 5z m-5952 -511 c35 -12 62 -23 60 -25 -2 -2
-325 -82 -718 -178 l-715 -174 -94 9 c-52 6 -102 14 -110 19 -18 10 -23 7 64
34 125 38 1272 332 1325 339 54 7 119 -1 188 -24z m3347 -217 c13 -7 14 -10 3
-19 -38 -30 -1253 -402 -3373 -1032 l-440 -131 -112 0 c-61 0 -123 4 -137 10
-36 13 -314 299 -298 305 8 3 41 5 74 5 l60 0 121 -95 c67 -53 126 -94 132
-92 5 2 406 133 890 291 484 158 1098 359 1365 446 537 176 582 187 1120 269
447 68 539 75 595 43z m-91 -203 c73 -20 108 -75 122 -189 5 -38 0 -55 -28
-109 -28 -55 -43 -71 -96 -104 l-63 -40 -157 -6 c-214 -8 -427 -4 -468 9 -42
14 -90 68 -105 118 -8 30 -8 54 2 107 l14 68 220 69 c121 37 252 72 290 77
102 12 224 13 269 0z"/>
<path d="M4799 983 c-62 -64 -79 -92 -79 -126 0 -49 30 -150 57 -191 22 -34
28 -38 56 -32 17 3 32 8 35 10 2 2 14 80 27 173 l23 168 -24 23 c-14 12 -31
22 -37 22 -7 0 -33 -21 -58 -47z"/>
</g>
</svg>
